<svg xmlns="http://www.w3.org/2000/svg" version="1.0" width="750.000000" height="264.000000" preserveAspectRatio="xMidYMid meet" style=""><rect id="backgroundrect" width="100%" height="100%" x="0" y="0" fill="none" stroke="none"/>


<g class="currentLayer" style=""><title>Layer 1</title><g transform="translate(0,264) scale(0.10000000149011612,-0.10000000149011612) " fill="#ffffff" stroke="none" id="svg_1" class="" fill-opacity="1">
<path d="M6098 2323 l-155 -298 446 -887 446 -887 328 -1 c181 0 327 4 325 8 -16 41 -1225 2362 -1230 2362 -3 0 -76 -134 -160 -297z" id="svg_2" fill="#ffffff" fill-opacity="1"/>
<path d="M3112 2371 c10 -29 1223 -2361 1228 -2361 8 1 305 578 307 598 1 9 -197 411 -441 892 l-442 875 -328 3 c-198 1 -326 -1 -324 -7z" id="svg_3" fill="#ffffff" fill-opacity="1"/>
<path d="M4672 1901 l-243 -480 159 -317 158 -317 404 779 c221 429 407 787 412 797 8 16 -10 17 -319 17 l-328 0 -243 -479z" id="svg_4" fill="#ffffff" fill-opacity="1"/>
<path d="M134 2067 c524 -770 768 -1122 775 -1125 5 -2 59 63 120 143 l111 147 -47 66 c-27 36 -64 88 -83 116 -20 28 -76 107 -125 176 -48 69 -106 150 -127 180 -21 30 -68 96 -103 145 -35 50 -101 143 -146 208 -45 64 -85 117 -88 118 -3 0 -97 2 -209 4 l-202 4 124 -182z" id="svg_5" fill="#ffffff" fill-opacity="1"/>
<path d="M1398 1225 l-798 -1025 312 2 313 3 742 945 c409 520 770 980 803 1023 l61 77 -318 0 -318 0 -797 -1025z" id="svg_6" fill="#ffffff" fill-opacity="1"/>
<path d="M580 2235 c0 -7 79 -120 195 -278 l60 -82 390 -2 c215 -2 395 1 401 5 15 10 267 342 263 347 -8 7 -1309 17 -1309 10z" id="svg_7" fill="#ffffff" fill-opacity="1"/>
<path d="M5828 1799 c-38 -66 -798 -1537 -798 -1544 0 -3 147 -4 326 -3 l326 3 244 479 243 479 -158 315 -158 316 -25 -45z" id="svg_8" fill="#ffffff" fill-opacity="1"/>
<path d="M2401 1365 l-111 -147 47 -66 c27 -36 64 -88 83 -116 20 -28 76 -107 125 -176 48 -69 106 -150 127 -180 21 -30 68 -95 103 -145 35 -49 101 -143 146 -207 45 -65 85 -118 88 -119 3 0 97 -2 209 -4 l202 -4 -124 182 c-524 770 -768 1122 -775 1125 -5 2 -59 -63 -120 -143z" id="svg_9" fill="#ffffff" fill-opacity="1"/>
<path d="M1804 572 c-15 -10 -267 -342 -263 -347 8 -7 1309 -17 1309 -10 0 7 -79 120 -195 278 l-60 82 -390 2 c-215 2 -395 -1 -401 -5z" id="svg_10" fill="#ffffff" fill-opacity="1"/>
</g></g></svg>